<svg width="24" height="24" viewBox="0 0 24 24" fill="none" xmlns="http://www.w3.org/2000/svg">
<path d="M12 14C11.1667 14 10.4583 14.2917 9.875 14.875C9.29167 15.4583 9 16.1667 9 17C9 17.8333 9.29167 18.5417 9.875 19.125C10.4583 19.7083 11.1667 20 12 20C12.8333 20 13.5417 19.7083 14.125 19.125C14.7083 18.5417 15 17.8333 15 17C15 16.1667 14.7083 15.4583 14.125 14.875C13.5417 14.2917 12.8333 14 12 14ZM11.95 0.999999L16 5L14 7L16 9L14 11L14 11.35C15.2 11.7667 16.1667 12.4917 16.9 13.525C17.6333 14.5583 18 15.7167 18 17C18 18.6667 17.4167 20.0833 16.25 21.25C15.0833 22.4167 13.6667 23 12 23C10.3333 23 8.91667 22.4167 7.75 21.25C6.58333 20.0833 6 18.6667 6 17C6 15.65 6.38333 14.4708 7.15 13.4625C7.91667 12.4542 8.86667 11.75 10 11.35L10 3L11.95 0.999999Z" fill="#CDD1D6"/>
</svg>
