<svg width="24" height="24" viewBox="0 0 24 24" fill="none" xmlns="http://www.w3.org/2000/svg">
<path fill-rule="evenodd" clip-rule="evenodd" d="M5 0C3.89543 0 3 0.89543 3 2V22C3 23.1046 3.89543 24 5 24H19C20.1046 24 21 23.1046 21 22V2C21 0.895431 20.1046 0 19 0H5ZM7.49947 4.63594C6.97229 4.63594 6.54492 5.0633 6.54492 5.59048C6.54492 6.11766 6.97229 6.54503 7.49947 6.54503H16.4995C17.0266 6.54503 17.454 6.11766 17.454 5.59048C17.454 5.0633 17.0266 4.63594 16.4995 4.63594H7.49947ZM10.091 11.0452C10.091 10.518 10.5184 10.0906 11.0456 10.0906H16.5001C17.0273 10.0906 17.4547 10.518 17.4547 11.0452C17.4547 11.5724 17.0273 11.9997 16.5001 11.9997H11.0456C10.5184 11.9997 10.091 11.5724 10.091 11.0452ZM11.0456 13.9092C10.5184 13.9092 10.091 14.3365 10.091 14.8637C10.091 15.3909 10.5184 15.8183 11.0456 15.8183H16.5001C17.0273 15.8183 17.4547 15.3909 17.4547 14.8637C17.4547 14.3365 17.0273 13.9092 16.5001 13.9092H11.0456ZM10.091 18.6817C10.091 18.1545 10.5184 17.7271 11.0456 17.7271H16.5001C17.0273 17.7271 17.4547 18.1545 17.4547 18.6817C17.4547 19.2089 17.0273 19.6362 16.5001 19.6362H11.0456C10.5184 19.6362 10.091 19.2089 10.091 18.6817ZM7.49947 10.0906C6.97229 10.0906 6.54492 10.518 6.54492 11.0452C6.54492 11.5724 6.97229 11.9997 7.49947 11.9997C8.02665 11.9997 8.45401 11.5724 8.45401 11.0452C8.45401 10.518 8.02665 10.0906 7.49947 10.0906ZM6.54492 14.8637C6.54492 14.3365 6.97229 13.9092 7.49947 13.9092C8.02665 13.9092 8.45401 14.3365 8.45401 14.8637C8.45401 15.3909 8.02665 15.8183 7.49947 15.8183C6.97229 15.8183 6.54492 15.3909 6.54492 14.8637ZM7.49947 17.7271C6.97229 17.7271 6.54492 18.1545 6.54492 18.6817C6.54492 19.2089 6.97229 19.6362 7.49947 19.6362C8.02665 19.6362 8.45401 19.2089 8.45401 18.6817C8.45401 18.1545 8.02665 17.7271 7.49947 17.7271Z" fill="#CDD1D6"/>
</svg>
