<svg width="24" height="25" viewBox="0 0 24 25" fill="none" xmlns="http://www.w3.org/2000/svg">
<path d="M20.5343 12.4851C16.792 15.2424 15.6351 13.5856 13.292 11.2424C10.9488 8.89929 9.29199 7.74243 12.049 3.99983C14.3921 1.65668 17.9482 1.89941 20.2914 4.24255C22.6345 6.5857 22.8774 10.142 20.5343 12.4851Z" fill="#CDD1D6"/>
<path fill-rule="evenodd" clip-rule="evenodd" d="M9.56675 11.0162L13.5221 14.9716C13.9365 15.3859 13.9074 16.0661 13.4592 16.4436L4.79245 23.7419C3.79245 24.4085 1.99212 24.9419 0.792116 23.7419C-0.707884 22.2419 0.29245 20.2419 0.79245 19.7419C1.15795 19.3764 5.44769 14.2517 8.09226 11.0816C8.46895 10.6301 9.15095 10.6004 9.56675 11.0162ZM9.77924 14.7286C9.32731 14.2767 8.5946 14.2767 8.14267 14.7286L6.98784 15.8834C6.53592 16.3354 6.53592 17.0681 6.98784 17.52C7.43977 17.9719 8.17248 17.9719 8.62441 17.52L9.77924 16.3652C10.2312 15.9132 10.2312 15.1805 9.77924 14.7286Z" fill="#CDD1D6"/>
</svg>
