<svg width="24" height="24" viewBox="0 0 24 24" fill="none" xmlns="http://www.w3.org/2000/svg">
<path d="M3.24936 20.3344C2.87684 20.4231 2.54703 20.0772 2.65323 19.7093L4.34204 13.8591L9.17304 18.9249L3.24936 20.3344Z" fill="#CDD1D6"/>
<path d="M4.34204 13.8591L13.388 5.23237C13.5878 5.0418 13.9043 5.0493 14.0949 5.24914L18.2357 9.59118C18.4263 9.79102 18.4188 10.1075 18.219 10.2981L9.17304 18.9249L4.34204 13.8591Z" fill="#CDD1D6"/>
<path d="M15.5423 3.86867C15.3518 3.66884 15.3593 3.35234 15.5591 3.16176L18.092 0.746268C18.4916 0.365113 19.1246 0.380126 19.5058 0.7798L22.9565 4.39817C23.3376 4.79784 23.3226 5.43083 22.923 5.81199L20.3901 8.22748C20.1903 8.41806 19.8738 8.41055 19.6832 8.21072L15.5423 3.86867Z" fill="#CDD1D6"/>
</svg>
